<svg t="1645757345242" class="icon" viewBox="0 0 1024 1024" version="1.1" xmlns="http://www.w3.org/2000/svg" p-id="6512" width="200" height="200"><path d="M905.8 450H778.2c-0.9 0-1.7-0.8-1.7-1.7V116.7c0-0.9-0.8-1.7-1.7-1.7H118.2c-0.9 0-1.7 0.8-1.7 1.7v790.6c0 0.9 0.8 1.7 1.7 1.7H905.8c0.9 0 1.7-0.8 1.7-1.7V451.7c0-0.9-0.8-1.7-1.7-1.7zM166.2 163h560.6c0.9 0 1.7 0.8 1.7 1.7v694.6c0 0.9-0.8 1.7-1.7 1.7H166.2c-0.9 0-1.7-0.8-1.7-1.7V164.7c0-0.9 0.8-1.7 1.7-1.7z m691.6 698h-79.6c-0.9 0-1.7-0.8-1.7-1.7V499.7c0-0.9 0.8-1.7 1.7-1.7h79.6c0.9 0 1.7 0.8 1.7 1.7v359.6c0 0.9-0.8 1.7-1.7 1.7z" p-id="6513"></path><path d="M304.2 259.2h-44.6c-0.9 0-1.7 0.8-1.7 1.7v44.6c0 0.9 0.8 1.7 1.7 1.7h44.6c0.9 0 1.7-0.8 1.7-1.7v-44.6c-0.1-0.9-0.8-1.7-1.7-1.7zM607.7 259.2H359.2c-0.9 0-1.7 0.8-1.7 1.7v44.6c0 0.9 0.8 1.7 1.7 1.7h248.5c0.9 0 1.7-0.8 1.7-1.7v-44.6c0-0.9-0.8-1.7-1.7-1.7zM303.2 370.1h-44.6c-0.9 0-1.7 0.8-1.7 1.7v44.6c0 0.9 0.8 1.7 1.7 1.7h44.6c0.9 0 1.7-0.8 1.7-1.7v-44.6c-0.1-1-0.8-1.7-1.7-1.7zM607 370.1H358.5c-0.9 0-1.7 0.8-1.7 1.7v44.6c0 0.9 0.8 1.7 1.7 1.7H607c0.9 0 1.7-0.8 1.7-1.7v-44.6c0-1-0.7-1.7-1.7-1.7zM303.2 481.1h-44.6c-0.9 0-1.7 0.8-1.7 1.7v44.6c0 0.9 0.8 1.7 1.7 1.7h44.6c0.9 0 1.7-0.8 1.7-1.7v-44.6c-0.1-1-0.8-1.7-1.7-1.7zM607 481.1H358.5c-0.9 0-1.7 0.8-1.7 1.7v44.6c0 0.9 0.8 1.7 1.7 1.7H607c0.9 0 1.7-0.8 1.7-1.7v-44.6c0-1-0.7-1.7-1.7-1.7z" p-id="6514"></path></svg>