<?xml version="1.0" standalone="no"?><!DOCTYPE svg PUBLIC "-//W3C//DTD SVG 1.1//EN" "http://www.w3.org/Graphics/SVG/1.1/DTD/svg11.dtd"><svg t="1629798152159" class="icon" viewBox="0 0 1024 1024" version="1.1" xmlns="http://www.w3.org/2000/svg" p-id="3371" xmlns:xlink="http://www.w3.org/1999/xlink" width="200" height="200"><defs><style type="text/css"></style></defs><path d="M917.333333 460.8l-354.133333-354.133333c-29.866667-29.866667-72.533333-29.866667-102.4 0l-354.133333 354.133333c-29.866667 29.866667-29.866667 72.533333 0 102.4l354.133333 354.133333c29.866667 29.866667 72.533333 29.866667 102.4 0l354.133333-354.133333c25.6-29.866667 25.6-72.533333 0-102.4M866.133333 512L512 866.133333 157.866667 512 512 157.866667l354.133333 354.133333M469.333333 661.333333h64V725.333333H469.333333v-64M512 298.666667c115.2 4.266667 166.4 119.466667 98.133333 209.066666-17.066667 21.333333-46.933333 34.133333-59.733333 55.466667-17.066667 17.066667-17.066667 38.4-17.066667 59.733333H469.333333c0-38.4 0-68.266667 17.066667-89.6 12.8-21.333333 42.666667-34.133333 59.733333-46.933333 51.2-46.933333 38.4-115.2-34.133333-123.733333-34.133333 0-64 29.866667-64 64H384c0-72.533333 59.733333-128 128-128z" fill="#DB3D25" p-id="3372"></path></svg>