<?xml version="1.0" standalone="no"?><!DOCTYPE svg PUBLIC "-//W3C//DTD SVG 1.1//EN" "http://www.w3.org/Graphics/SVG/1.1/DTD/svg11.dtd"><svg t="1629798145410" class="icon" viewBox="0 0 1024 1024" version="1.1" xmlns="http://www.w3.org/2000/svg" p-id="3244" xmlns:xlink="http://www.w3.org/1999/xlink" width="200" height="200"><defs><style type="text/css"></style></defs><path d="M462.272 699.712c20.864 12.288 44.736 18.56 68.928 18.048a138.176 138.176 0 0 0 112.256-53.888 210.624 210.624 0 0 0 41.856-135.232 184.704 184.704 0 0 0-36.864-120.128 127.36 127.36 0 0 0-104.576-46.912 146.816 146.816 0 0 0-97.472 36.288V222.4h-63.424V710.4h63.68v-22.016c4.864 4.224 10.112 8 15.616 11.328zM502.4 428.8c11.904-5.056 24.832-7.232 37.76-6.4a69.12 69.12 0 0 1 57.344 27.392c16.448 23.232 24.448 51.328 22.848 79.68a159.04 159.04 0 0 1-25.6 94.976 72.512 72.512 0 0 1-61.44 32.512 78.336 78.336 0 0 1-62.464-26.688A97.408 97.408 0 0 1 446.4 563.2v-38.4a110.208 110.208 0 0 1 25.152-73.28c8.32-9.856 18.944-17.664 30.848-22.72zM210.496 363.2a193.92 193.92 0 0 0-59.968 10.368 165.76 165.76 0 0 0-51.2 25.6l-6.4 4.928v76.8l27.072-22.976a134.4 134.4 0 0 1 87.424-36.608 48.512 48.512 0 0 1 42.304 18.048c9.6 14.848 14.72 32.192 14.784 49.856L185.6 500.8a166.4 166.4 0 0 0-88.192 36.8 105.6 105.6 0 0 0-1.408 149.504 111.168 111.168 0 0 0 80.192 29.056 125.44 125.44 0 0 0 70.848-21.248c6.528-4.352 12.608-9.28 18.304-14.656v28.416h60.224V493.76a140.352 140.352 0 0 0-30.016-96 107.968 107.968 0 0 0-85.056-34.56z m54.848 194.624c1.28 26.752-7.68 53.056-25.024 73.472a78.144 78.144 0 0 1-61.12 27.008 53.248 53.248 0 0 1-38.912-12.8 53.312 53.312 0 0 1 0-69.824c17.984-11.136 38.4-17.728 59.52-19.2l65.28-9.472 0.256 10.816z m532.032 148.288c19.648 8.32 40.96 12.352 62.272 11.648 31.68 0.768 62.912-7.296 90.24-23.36l7.872-4.8 0.832-0.448V615.36l-28.544 20.48c-20.224 14.336-44.544 21.76-69.376 21.056A83.2 83.2 0 0 1 793.6 627.2a126.4 126.4 0 0 1-25.6-83.968 128.64 128.64 0 0 1 28.992-88.384A91.648 91.648 0 0 1 870.4 422.4a115.2 115.2 0 0 1 62.144 17.856l27.52 16.96V382.08l-10.88-4.672a185.6 185.6 0 0 0-74.88-15.808 161.28 161.28 0 0 0-123.456 52.288 185.6 185.6 0 0 0-47.808 131.136c-1.792 45.248 13.44 89.6 42.88 124.096 14.208 15.936 31.808 28.544 51.456 36.992z" fill="#C5C5C5" p-id="3245"></path></svg>