<?xml version="1.0" standalone="no"?><!DOCTYPE svg PUBLIC "-//W3C//DTD SVG 1.1//EN" "http://www.w3.org/Graphics/SVG/1.1/DTD/svg11.dtd"><svg t="1628221877467" class="icon" viewBox="0 0 1024 1024" version="1.1" xmlns="http://www.w3.org/2000/svg" p-id="22032" xmlns:xlink="http://www.w3.org/1999/xlink" width="200" height="200"><defs><style type="text/css"></style></defs><path d="M802.133333 622.933333H853.333333c46.933333 0 85.333333 38.4 85.333334 85.333334v42.666666c0 46.933333-38.4 85.333333-85.333334 85.333334h-51.2v68.266666c0 17.066667-17.066667 34.133333-34.133333 34.133334s-34.133333-17.066667-34.133333-34.133334v-68.266666H682.666667c-46.933333 0-85.333333-38.4-85.333334-85.333334v-42.666666c0-46.933333 38.4-85.333333 85.333334-85.333334h51.2v-51.2c0-17.066667 17.066667-34.133333 34.133333-34.133333s34.133333 17.066667 34.133333 34.133333v51.2z m0 68.266667V768H853.333333c8.533333 0 17.066667-8.533333 17.066667-17.066667v-42.666666c0-8.533333-8.533333-17.066667-17.066667-17.066667h-51.2zM733.866667 768v-76.8H682.666667c-8.533333 0-17.066667 8.533333-17.066667 17.066667v42.666666c0 8.533333 8.533333 17.066667 17.066667 17.066667h51.2zM725.333333 85.333333c46.933333 0 85.333333 38.4 85.333334 85.333334v256c0 25.6-17.066667 42.666667-42.666667 42.666666s-42.666667-17.066667-42.666667-42.666666V170.666667H170.666667v554.666666h341.333333c25.6 0 42.666667 17.066667 42.666667 42.666667s-17.066667 42.666667-42.666667 42.666667H170.666667c-46.933333 0-85.333333-38.4-85.333334-85.333334V170.666667c0-46.933333 38.4-85.333333 85.333334-85.333334h554.666666zM405.333333 213.333333c17.066667 0 29.866667 8.533333 34.133334 25.6L554.666667 554.666667c4.266667 17.066667 0 34.133333-17.066667 38.4H512c-17.066667 0-29.866667-8.533333-34.133333-25.6l-17.066667-51.2H311.466667l-17.066667 51.2c-4.266667 21.333333-21.333333 29.866667-34.133333 29.866666h-17.066667c-17.066667 0-29.866667-12.8-29.866667-29.866666V554.666667l115.2-320c8.533333-12.8 21.333333-21.333333 38.4-21.333334h38.4zM384 341.333333l-42.666667 128h85.333334L384 341.333333z" p-id="22033"></path></svg>